PathFileType	4	(X/Y/Z)	/Users/itak/Documents/Research/Walk-IL/dataset/trc/00530_00183.trc
DataRate	CameraRate	NumFrames	NumMarkers	Units	OrigDataRate	OrigDataStartFrame	OrigNumFrames
100.000000	100.000000	4	53	mm	100.000000	171	457
Frame#	Time	RPSI			LPSI			L3			STRN			T10			C7			CLAV			RBAK			LBAK			LSHO			LUPA			LAEL			LAOL			LWTS			LFRA			LIFD			LHPS			LHTS			RSHO			RUPA			RAEL			RAOL			RWTS			RWPS			RFRA			RIFD			RHTS			RHPS			RBHD			LFHD			RFHD			LBHD			LHIP			RASI			LASI			LKNE			LTHI			LANK			LTIP			LTOE			LMT1			LMT5			LHEE			RKNE			RTHI			RANK			RTIP			RTOE			RMT1			RMT5			RHEE			LWPS			RHIP			
		X1	Y1	Z1	X2	Y2	Z2	X3	Y3	Z3	X4	Y4	Z4	X5	Y5	Z5	X6	Y6	Z6	X7	Y7	Z7	X8	Y8	Z8	X9	Y9	Z9	X10	Y10	Z10	X11	Y11	Z11	X12	Y12	Z12	X13	Y13	Z13	X14	Y14	Z14	X15	Y15	Z15	X16	Y16	Z16	X17	Y17	Z17	X18	Y18	Z18	X19	Y19	Z19	X20	Y20	Z20	X21	Y21	Z21	X22	Y22	Z22	X23	Y23	Z23	X24	Y24	Z24	X25	Y25	Z25	X26	Y26	Z26	X27	Y27	Z27	X28	Y28	Z28	X29	Y29	Z29	X30	Y30	Z30	X31	Y31	Z31	X32	Y32	Z32	X33	Y33	Z33	X34	Y34	Z34	X35	Y35	Z35	X36	Y36	Z36	X37	Y37	Z37	X38	Y38	Z38	X39	Y39	Z39	X40	Y40	Z40	X41	Y41	Z41	X42	Y42	Z42	X43	Y43	Z43	X44	Y44	Z44	X45	Y45	Z45	X46	Y46	Z46	X47	Y47	Z47	X48	Y48	Z48	X49	Y49	Z49	X50	Y50	Z50	X51	Y51	Z51	X52	Y52	Z52	X53	Y53	Z53	

172	1.71	-854.8074340820312	954.8523559570312	-231.2754516601562	-806.51025390625	945.3690185546875	-345.2375793457031	-827.2791137695312	1029.739501953125	-294.9125671386719	-619.47021484375	1182.444213867188	-199.3713989257812	-833.6779174804688	1135.3603515625	-290.8485717773438	-789.2623901367188	1363.657836914062	-263.1445007324219	-649.599853515625	1279.159790039062	-208.3723907470703	-871.2470092773438	1242.057495117188	-209.4954833984375	-780.0015869140625	1313.416381835938	-356.0380249023438	-662.7340087890625	1358.353393554688	-384.9009704589844	-651.0303955078125	1232.628295898438	-447.7767333984375	-630.181640625	1022.272827148438	-467.0870971679688	-726.6220092773438	1013.740112304688	-440.34912109375	-563.2266235351562	841.5607299804688	-389.7372741699219	-612.65283203125	940.1193237304688	-459.9519653320312	-560.278564453125	684.8300170898438	-375.26708984375	-588.82763671875	750.0225219726562	-444.1258544921875	-543.027099609375	764.3008422851562	-400.3921813964844	-797.5164184570312	1350.0126953125	-105.6714782714844	-842.6055908203125	1283.802734375	-66.41324615478516	-895.9429931640625	1020.794860839844	-44.04704284667969	-919.8552856445312	1011.723571777344	-105.6509628295898	-825.1259765625	806.1424560546875	-25.0095157623291	-915.27685546875	796.911376953125	-35.20621109008789	-903.3837280273438	966.464111328125	-38.8836669921875	-848.2725219726562	647.7693481445312	-30.170166015625	-841.5881958007812	712.8434448242188	-1.730238080024719	-907.8193359375	721.08251953125	-25.2203540802002	-778.31982421875	1515.755249023438	-161.5704498291016	-601.3997802734375	1572.776123046875	-236.4138946533203	-656.1986694335938	1565.647338867188	-121.6668395996094	-722.45751953125	1521.780517578125	-311.7370300292969	-655.9818115234375	865.7549438476562	-409.2290649414062	-698.1820678710938	913.8541259765625	-90.4024658203125	-600.7368774414062	909.951904296875	-310.3977966308594	-574.5245971679688	450.6235046386719	-333.7296142578125	-591.148681640625	609.0637817382812	-360.1754455566406	-897.9715576171875	216.7429351806641	-488.3877258300781	-666.0626220703125	353.8892211914062	-384.7483215332031	-846.607177734375	44.51985931396484	-394.8309631347656	-888.1396484375	112.1812133789062	-378.9930725097656	-857.4231567382812	116.0331192016602	-478.9012145996094	-940.34619140625	256.18701171875	-439.6222229003906	-731.1539306640625	479.5030212402344	-104.3491973876953	-775.9630126953125	737.1982421875	-57.19099044799805	-772.6212158203125	50.25913619995117	-177.6311645507812	-709.6993408203125	333.0748901367188	-123.4124526977539	-573.80517578125	44.11887741088867	-124.7085647583008	-615.6036376953125	47.61813354492188	-189.0235443115234	-678.4618530273438	46.35593795776367	-114.832893371582	-797.4906616210938	39.35612869262695	-243.0335998535156	-609.9356079101562	802.749755859375	-461.2644653320312	-814.5079345703125	867.197265625	-70.72895812988281	
173	1.72	-850.9744873046875	956.860595703125	-229.2297210693359	-800.2705688476562	946.0304565429688	-341.9438171386719	-821.379150390625	1030.50830078125	-291.1110534667969	-613.3611450195312	1183.360107421875	-195.5348052978516	-827.7123413085938	1136.195922851562	-286.4206237792969	-783.3849487304688	1364.453369140625	-258.505126953125	-643.616455078125	1280.048828125	-204.3497314453125	-865.0046997070312	1242.619384765625	-204.4172821044922	-774.4572143554688	1314.289916992188	-351.4177856445312	-657.33203125	1359.301147460938	-380.7228698730469	-645.8178100585938	1233.659545898438	-443.7389831542969	-624.44140625	1023.317199707031	-462.761474609375	-721.027587890625	1014.602661132812	-436.2618713378906	-556.3804931640625	843.615966796875	-384.9024658203125	-606.4376220703125	941.5797119140625	-455.4474487304688	-552.056640625	686.9400634765625	-369.8729553222656	-580.8616333007812	751.6220703125	-439.0448913574219	-535.4682006835938	766.4866333007812	-395.1812438964844	-790.9258422851562	1350.747680664062	-101.0537796020508	-835.461669921875	1284.442993164062	-61.15781021118164	-885.6124267578125	1020.927734375	-35.98181915283203	-910.8140258789062	1011.189758300781	-96.86133575439453	-812.6459350585938	807.0732421875	-16.8465461730957	-903.0262451171875	797.1718139648438	-25.08541297912598	-892.4307250976562	966.5628051757812	-30.28938293457031	-834.9786376953125	648.546630859375	-19.88071632385254	-828.0986938476562	713.9539794921875	7.724483013153076	-894.857177734375	721.5460815429688	-14.51099586486816	-771.7213134765625	1516.753173828125	-156.8961944580078	-595.1264038085938	1573.457153320312	-232.8725433349609	-649.2921142578125	1566.593383789062	-117.8460311889648	-716.6502685546875	1522.423828125	-307.4383850097656	-649.015380859375	867.0922241210938	-405.3621826171875	-692.6836547851562	914.3243408203125	-86.37565612792969	-594.715087890625	911.5465087890625	-306.1316528320312	-558.6209106445312	454.6471252441406	-324.7626953125	-579.2933959960938	612.0042724609375	-353.7677917480469	-879.510009765625	218.1350402832031	-478.7688903808594	-649.210205078125	357.5484619140625	-375.1903381347656	-823.876708984375	45.97605514526367	-387.4383850097656	-866.9915771484375	112.4970092773438	-370.6829223632812	-836.1039428710938	118.7774658203125	-470.3638610839844	-922.9119262695312	256.0196228027344	-429.7331237792969	-729.513916015625	479.0517272949219	-102.5400161743164	-771.3575439453125	737.0970458984375	-54.28079986572266	-772.649658203125	50.2190055847168	-177.627197265625	-709.1056518554688	332.6687622070312	-122.3927841186523	-573.8493041992188	44.10628509521484	-124.6838073730469	-615.67138671875	47.63454055786133	-188.9578857421875	-678.505126953125	46.28767395019531	-114.7633056640625	-797.5104370117188	39.35261535644531	-243.0875549316406	-602.5440063476562	804.167236328125	-456.5107421875	-809.219970703125	867.3165283203125	-67.52259826660156	
174	1.73	-846.3666381835938	958.366943359375	-226.7926788330078	-793.9379272460938	946.7850952148438	-338.6392517089844	-815.3995971679688	1031.245971679688	-287.2789611816406	-607.2799682617188	1184.2822265625	-191.6084289550781	-821.775390625	1136.999145507812	-282.1965637207031	-777.514892578125	1365.214721679688	-253.9429473876953	-637.6437377929688	1280.941284179688	-200.2795257568359	-858.8038940429688	1243.158935546875	-199.4866180419922	-768.8623046875	1315.138305664062	-346.8629455566406	-651.8823852539062	1360.2099609375	-376.5170288085938	-640.5465087890625	1234.698364257812	-439.7131042480469	-618.6978759765625	1024.368896484375	-458.56494140625	-715.48046875	1015.48486328125	-432.2784729003906	-549.4913940429688	845.6484985351562	-380.297607421875	-600.2163696289062	943.0784912109375	-451.1024780273438	-543.810546875	689.0425415039062	-364.7494812011719	-572.9152221679688	753.2255249023438	-434.2003479003906	-527.9017333984375	768.66748046875	-390.237060546875	-784.4663696289062	1351.480712890625	-96.53074645996094	-828.4466552734375	1285.083984375	-56.02157211303711	-875.1387939453125	1021.07177734375	-27.95502281188965	-901.6339721679688	1010.608093261719	-88.08351898193359	-799.9523315429688	808.0447387695312	-8.763731002807617	-890.54052734375	797.4749145507812	-14.9751033782959	-881.2969970703125	966.6925659179688	-21.72950553894043	-821.401611328125	649.3699340820312	-9.760218620300293	-814.3462524414062	715.0987548828125	17.04881477355957	-881.6226806640625	722.0536499023438	-3.878843784332275	-765.0833740234375	1517.798950195312	-152.2650299072266	-588.7487182617188	1573.992797851562	-229.3604431152344	-642.2941284179688	1567.443237304688	-114.0589447021484	-710.7801513671875	1523.080932617188	-303.1794738769531	-641.8971557617188	868.481201171875	-401.4885864257812	-687.1661376953125	914.677490234375	-82.34093475341797	-588.69140625	913.120361328125	-301.843505859375	-543.1906127929688	458.9586791992188	-315.7563171386719	-567.5300903320312	615.1504516601562	-347.339111328125	-860.4525146484375	218.1050872802734	-468.9049377441406	-632.5543212890625	361.0335083007812	-365.5723571777344	-799.9193115234375	46.97763061523438	-378.8932495117188	-844.9910888671875	112.0060501098633	-361.6513366699219	-813.796875	120.4192581176758	-461.0374145507812	-905.0916748046875	254.4186706542969	-419.84619140625	-727.890380859375	478.5848999023438	-100.7375564575195	-766.7719116210938	736.931640625	-51.43297576904297	-772.6701049804688	50.17872619628906	-177.6214294433594	-708.5724487304688	332.2726135253906	-121.3694534301758	-573.8926391601562	44.09343338012695	-124.6593627929688	-615.7266235351562	47.65196228027344	-188.9091339111328	-678.5486450195312	46.21619415283203	-114.6923446655273	-797.53515625	39.35879516601562	-243.1340789794922	-595.1828002929688	805.5870361328125	-451.9645080566406	-803.9356079101562	867.345947265625	-64.32696533203125	
175	1.74	-841.0792236328125	959.4354248046875	-224.0068511962891	-787.529296875	947.5901489257812	-335.3203125	-809.3346557617188	1031.933837890625	-283.4002685546875	-601.2135009765625	1185.189819335938	-187.5897979736328	-815.8383178710938	1137.744995117188	-278.0857849121094	-771.6453247070312	1365.927490234375	-249.4377593994141	-631.6697387695312	1281.811401367188	-196.1593780517578	-852.6303100585938	1243.66455078125	-194.6852874755859	-763.2102661132812	1315.944580078125	-342.3594360351562	-646.3696899414062	1361.070068359375	-372.2760009765625	-635.2024536132812	1235.7294921875	-435.686767578125	-612.9473876953125	1025.415649414062	-454.5128784179688	-709.9419555664062	1016.36181640625	-428.3747863769531	-542.5455322265625	847.626953125	-375.9337158203125	-593.9834594726562	944.5855102539062	-446.9277954101562	-535.5668334960938	691.1099853515625	-359.9078063964844	-565.0128173828125	754.8129272460938	-429.6067810058594	-520.3390502929688	770.8055419921875	-385.5792846679688	-778.1229248046875	1352.19482421875	-92.07754516601562	-821.5474243164062	1285.705322265625	-50.98730850219727	-864.5718383789062	1021.227844238281	-19.98149490356445	-892.3352661132812	1009.98779296875	-79.34225463867188	-787.0609130859375	809.0702514648438	-0.7635652422904968	-877.816162109375	797.8148803710938	-4.921043395996094	-870.0311889648438	966.8489379882812	-13.22723770141602	-807.513916015625	650.2482299804688	0.1749458163976669	-800.329833984375	716.2859497070312	26.22838592529297	-868.0991821289062	722.5947265625	6.636681079864502	-758.4075927734375	1518.880859375	-147.6842498779297	-582.2744750976562	1574.376708984375	-225.8866729736328	-635.21142578125	1568.203735351562	-110.3116760253906	-704.8440551757812	1523.72314453125	-298.9673156738281	-634.6378173828125	869.8658447265625	-397.58203125	-681.6102905273438	914.904296875	-78.30316925048828	-582.659912109375	914.6393432617188	-297.5464477539062	-528.22900390625	463.4701843261719	-306.7331237792969	-555.915771484375	618.4533081054688	-340.907958984375	-840.781494140625	216.6912384033203	-458.829833984375	-616.0746459960938	364.2658386230469	-355.9130554199219	-774.8674926757812	47.55432510375977	-369.1378479003906	-822.2036743164062	110.8079147338867	-351.8671875	-790.6133422851562	120.9848480224609	-450.9194641113281	-886.86181640625	251.4429931640625	-410.0016174316406	-726.296142578125	478.1070861816406	-98.89274597167969	-762.2504272460938	736.71044921875	-48.64432144165039	-772.6860961914062	50.13370895385742	-177.6076354980469	-708.0919799804688	331.8855895996094	-120.326416015625	-573.9384155273438	44.07964324951172	-124.6252136230469	-615.7731323242188	47.67474365234375	-188.8656005859375	-678.597412109375	46.13269805908203	-114.6107406616211	-797.5709228515625	39.37952423095703	-243.1616516113281	-587.8450317382812	806.992431640625	-447.6304931640625	-798.6357421875	867.298095703125	-61.14225769042969	
